# xmcd
#
# Track frame offsets:
#	150
#	21965
#	39014
#	57052
#	85989
#	108622
#	123180
#	152119
#	175717
#
# Disc length: 2703 seconds
#
# Revision: 0
# Processed by: cddbd v1.5.2PL0 Copyright (c) Steve Scherf et al.
# Submitted via: EasyCDDAExtractor 16.1.0.1
#
DISCID=640a8d09
DTITLE=Labrinth - Electronic Earth
DYEAR=2012
DGENRE=English
TTITLE0=Earthquake (All Stars Remix) (Feat. Busta Ryhmes, Kano, Tinie Tempah &
TTITLE0=Wretch 32)
TTITLE1=T.O.P.
TTITLE2=Up In Flames (Feat. Devlin and Tinchy Stryder)
TTITLE3=Earthquake (Noisia Remix)
TTITLE4=Earthquake (Benny Benassi Remix) (Feat. Tinie Tempah)
TTITLE5=Let The Sun Shine (Joey Negro Radio Mix)
TTITLE6=Let The Sun Shine (Wideboys Remix)
TTITLE7=Last Time (Knife Party Remix)
TTITLE8=Last Time (R3hab Remix)
EXTD=
EXTT0=
EXTT1=
EXTT2=
EXTT3=
EXTT4=
EXTT5=
EXTT6=
EXTT7=
EXTT8=
PLAYORDER=
